<svg width="1261" height="271" xmlns="http://www.w3.org/2000/svg" xmlns:xlink="http://www.w3.org/1999/xlink" overflow="hidden"><defs><clipPath id="clip0"><rect x="10" y="205" width="1261" height="271"/></clipPath><clipPath id="clip1"><rect x="11" y="206" width="1259" height="270"/></clipPath><clipPath id="clip2"><rect x="11" y="206" width="1259" height="271"/></clipPath><clipPath id="clip3"><rect x="11" y="-237" width="1259" height="1574"/></clipPath></defs><g clip-path="url(#clip0)" transform="translate(-10 -205)"><g clip-path="url(#clip1)"><g clip-path="url(#clip2)"><g clip-path="url(#clip3)"><path d="M1228.67 659.657 1228.67 648.327 1223.64 648.327 1223.64 642.033 1208.53 642.033 1208.53 647.068 1206.01 647.068 1206.01 636.997 1174.54 636.997 1174.54 609.302 1124.19 609.302 1124.19 659.657 1120.41 659.657 1120.41 635.738 1099.01 635.738 1099.01 623.15 1076.35 623.15 1076.35 659.657 1065.02 659.657C1065.02 628.185 1065.02 552.652 1053.69 524.956 1051.17 519.921 1047.39 508.591 1038.58 508.591 1029.77 508.591 1025.99 519.921 1023.48 524.956 1014.66 546.357 1012.15 599.231 1010.89 635.738L989.486 635.738 989.486 659.657 985.709 659.657 985.709 536.286 978.156 536.286 978.156 523.697 951.719 523.697 951.719 536.286 945.425 536.286 945.425 659.657 939.13 659.657 939.13 644.551 932.836 644.551 932.836 630.703 916.47 630.703 916.47 533.768 905.14 533.768 905.14 519.921 891.293 519.921 891.293 522.438 887.516 522.438 887.516 533.768 876.186 533.768 876.186 658.398 868.633 658.398 868.633 626.926 853.526 626.926 853.526 658.398 851.008 658.398 844.714 608.043 844.714 613.078 843.455 605.525 843.455 605.525 843.455 614.337 842.196 609.302 840.937 635.738 838.419 635.738 835.902 603.007 834.643 603.007 833.384 635.738 830.866 635.738 827.089 629.444 824.572 611.82 822.054 604.266C822.054 604.266 822.054 591.677 820.795 575.312 820.795 562.723 815.759 533.768 815.759 529.992 815.759 529.992 817.018 528.733 817.018 527.474 817.018 526.215 815.759 524.956 814.5 524.956 813.242 524.956 811.983 527.474 811.983 527.474 811.983 527.474 813.242 528.733 813.242 529.992 813.242 533.768 809.465 561.464 808.206 575.312 808.206 579.088 808.206 581.606 808.206 585.383 808.206 579.088 808.206 571.535 808.206 566.5 808.206 552.652 803.171 522.438 803.171 521.18 803.171 521.18 804.429 519.921 804.429 518.662 804.429 517.403 803.171 516.144 801.912 516.144 800.653 516.144 799.394 517.403 799.394 518.662 799.394 518.662 800.653 519.921 800.653 521.18 800.653 522.438 796.876 551.393 795.617 566.5 795.617 571.535 795.617 576.571 795.617 581.606L793.099 579.088 793.099 570.276C793.099 569.017 793.099 567.758 793.099 566.5 793.099 565.241 794.358 563.982 794.358 563.982 794.358 562.723 793.099 561.464 793.099 561.464L793.099 561.464C791.841 561.464 791.841 562.723 791.841 563.982 791.841 563.982 793.099 565.241 793.099 566.5 793.099 567.758 793.099 569.017 793.099 570.276L789.323 579.088 786.805 580.347C786.805 575.312 786.805 570.276 786.805 565.241 786.805 551.393 781.769 522.438 781.769 519.921 781.769 519.921 783.028 518.662 783.028 517.403 783.028 516.144 781.769 514.885 780.511 514.885 779.252 514.885 777.993 516.144 777.993 517.403 777.993 517.403 779.252 518.662 779.252 519.921 779.252 523.697 774.216 551.393 774.216 565.241 774.216 571.535 774.216 577.83 774.216 584.124 774.216 580.347 774.216 577.83 774.216 574.053 774.216 560.205 769.181 532.51 769.181 528.733 769.181 528.733 770.439 527.474 770.439 526.215 770.439 524.956 769.181 523.697 767.922 523.697 766.663 523.697 765.404 524.956 765.404 526.215 765.404 526.215 766.663 527.474 766.663 528.733 766.663 532.51 761.627 560.205 761.627 574.053 761.627 590.418 760.368 606.784 760.368 606.784L756.592 609.302C755.333 603.007 754.074 594.195 754.074 594.195 754.074 592.936 752.815 594.195 752.815 594.195 752.815 594.195 750.297 605.525 747.779 613.078 747.779 610.561 746.521 608.043 746.521 608.043 746.521 606.784 745.262 608.043 745.262 608.043 745.262 608.043 745.262 610.561 744.003 613.078 742.744 606.784 740.226 595.454 740.226 594.195 740.226 592.936 738.967 594.195 738.967 594.195 738.967 594.195 736.449 606.784 735.191 613.078 735.191 610.561 733.932 608.043 733.932 608.043 733.932 606.784 732.673 608.043 732.673 608.043 732.673 608.043 732.673 610.561 731.414 613.078 730.155 606.784 727.637 594.195 727.637 594.195 727.637 592.936 726.378 594.195 726.378 594.195 726.378 594.195 723.861 605.525 722.602 613.078 722.602 610.561 721.343 608.043 721.343 608.043 721.343 606.784 720.084 608.043 720.084 608.043 720.084 608.043 720.084 610.561 718.825 613.078 717.566 606.784 715.048 594.195 715.048 594.195 715.048 592.936 713.789 594.195 713.789 594.195 713.789 594.195 711.272 605.525 710.013 613.078 710.013 610.561 708.754 609.302 708.754 609.302 708.754 608.043 707.495 609.302 707.495 609.302 707.495 609.302 702.459 633.221 702.459 633.221L702.459 657.14 704.977 657.14 704.977 633.221 689.871 633.221 689.871 653.363 678.541 653.363 678.541 634.48 654.622 634.48 654.622 642.033 649.586 642.033 649.586 620.632 633.221 620.632 633.221 642.033 628.185 642.033 628.185 635.738 600.49 635.738 600.49 654.622C600.49 653.363 600.49 653.363 599.231 653.363 597.972 653.363 599.231 652.104 599.231 652.104 599.231 652.104 597.972 650.845 597.972 650.845 597.972 650.845 597.972 649.586 597.972 649.586 597.972 648.327 596.713 649.586 596.713 649.586L596.713 644.551C596.713 640.774 595.454 640.774 591.677 639.515 591.677 636.997 589.16 635.738 589.16 635.738 589.16 634.48 587.901 633.221 587.901 633.221 587.901 633.221 589.16 633.221 589.16 631.962 589.16 631.962 587.901 630.703 587.901 630.703L586.642 585.383C586.642 585.383 586.642 585.383 586.642 584.124 587.901 584.124 587.901 584.124 589.16 581.606 591.677 580.347 589.16 580.347 589.16 580.347L587.901 580.347C587.901 580.347 587.901 579.088 586.642 579.088 586.642 577.83 587.901 576.571 587.901 576.571 587.901 576.571 587.901 574.053 587.901 574.053 587.901 574.053 587.901 574.053 587.901 572.794 589.16 572.794 587.901 571.535 587.901 571.535 587.901 569.017 585.383 569.017 585.383 569.017L584.124 569.017C584.124 569.017 585.383 567.758 585.383 567.758 585.383 567.758 585.383 566.5 584.124 566.5 584.124 566.5 584.124 566.5 584.124 565.241 584.124 565.241 584.124 563.982 584.124 563.982L585.383 563.982 585.383 560.205C585.383 560.205 585.383 560.205 586.642 561.464 586.642 561.464 586.642 558.946 586.642 558.946 586.642 558.946 586.642 557.687 585.383 557.687 585.383 556.428 584.124 556.428 584.124 556.428 584.124 556.428 584.124 556.428 584.124 556.428 584.124 556.428 584.124 556.428 584.124 555.17 584.124 555.17 584.124 553.911 584.124 553.911 584.124 553.911 582.865 553.911 582.865 555.17L582.865 555.17C582.865 555.17 582.865 555.17 582.865 555.17 582.865 555.17 582.865 555.17 582.865 556.428 582.865 556.428 582.865 556.428 582.865 556.428 582.865 556.428 580.347 556.428 580.347 556.428 580.347 556.428 579.088 556.428 577.83 556.428 577.83 556.428 576.571 556.428 576.571 556.428 576.571 556.428 577.83 557.687 577.83 557.687 579.088 557.687 579.088 557.687 579.088 557.687 579.088 557.687 579.088 558.946 579.088 558.946 579.088 558.946 579.088 558.946 580.347 560.205 581.606 558.946 581.606 560.205 581.606 560.205L580.347 565.241 581.606 565.241C581.606 565.241 581.606 566.5 581.606 566.5 581.606 566.5 581.606 566.5 581.606 567.758 581.606 567.758 581.606 569.017 581.606 569.017 581.606 570.276 581.606 570.276 582.865 570.276L582.865 570.276C582.865 570.276 580.347 571.535 580.347 572.794 580.347 572.794 579.088 574.053 580.347 574.053 580.347 575.312 580.347 575.312 580.347 575.312 580.347 576.571 580.347 577.83 580.347 577.83 580.347 577.83 581.606 579.088 581.606 580.347 580.347 581.606 580.347 581.606 580.347 581.606L579.088 581.606C579.088 581.606 576.571 581.606 579.088 582.865 579.088 584.124 579.088 585.383 580.347 585.383 580.347 585.383 580.347 585.383 580.347 586.642L579.088 631.962C579.088 631.962 579.088 633.221 579.088 633.221 579.088 633.221 579.088 634.48 579.088 634.48 579.088 634.48 576.571 634.48 577.83 636.997 577.83 636.997 575.312 638.256 575.312 640.774 572.794 642.033 570.276 642.033 570.276 645.81L570.276 650.845C570.276 650.845 570.276 649.586 569.017 650.845 569.017 652.104 569.017 652.104 569.017 652.104 569.017 652.104 567.758 652.104 567.758 653.363 567.758 653.363 567.758 654.622 567.758 654.622 566.5 654.622 566.5 655.881 566.5 657.14 566.5 658.398 566.5 658.398 565.241 658.398L566.5 658.398 566.5 658.398 565.241 658.398 565.241 635.738 558.946 635.738 558.946 621.891 541.322 621.891 541.322 531.251C541.322 531.251 497.261 527.474 474.601 565.241 473.342 567.758 472.083 570.276 470.824 572.794L460.753 572.794C460.753 572.794 459.494 572.794 459.494 572.794 459.494 572.794 459.494 572.794 460.753 572.794L462.012 572.794 463.271 576.571 462.012 576.571C462.012 576.571 462.012 576.571 462.012 576.571 462.012 576.571 462.012 576.571 462.012 576.571L464.53 576.571 465.789 580.347 464.53 580.347C464.53 580.347 464.53 580.347 464.53 580.347 464.53 580.347 464.53 580.347 464.53 580.347L465.789 580.347 465.789 581.606C455.717 613.078 462.012 642.033 465.789 654.622L459.494 654.622 459.494 626.926 454.459 626.926 454.459 620.632 433.057 620.632 433.057 630.703 422.986 630.703 422.986 633.221C421.727 631.962 419.21 630.703 417.951 628.185L417.951 614.337 386.479 614.337C385.22 614.337 385.22 613.078 383.961 613.078 381.443 611.82 376.408 609.302 373.89 606.784 371.372 605.525 367.595 601.748 366.336 600.49 363.819 597.972 362.56 590.418 358.783 589.16 357.524 587.901 353.748 587.901 351.23 586.642 348.712 585.383 343.676 581.606 341.159 581.606 338.641 580.347 331.088 579.088 328.57 577.83 326.052 576.571 322.275 572.794 319.758 572.794 317.24 571.535 313.463 571.535 309.686 571.535 309.686 571.535 309.686 571.535 309.686 571.535 309.686 570.276 307.169 569.017 307.169 569.017L303.392 566.5C303.392 566.5 302.133 566.5 300.874 563.982 298.356 555.17 289.544 523.697 285.768 511.108 285.768 511.108 287.026 511.108 287.026 512.367 289.544 513.626 292.062 514.885 292.062 514.885 290.803 514.885 289.544 513.626 287.026 511.108 285.768 511.108 285.768 509.85 284.509 509.85 284.509 508.591 284.509 507.332 284.509 507.332L285.768 504.814C285.768 504.814 287.026 504.814 289.544 504.814 289.544 509.85 289.544 512.367 289.544 512.367 289.544 512.367 289.544 509.85 289.544 504.814 293.321 504.814 299.615 503.555 300.874 498.52 302.133 493.484 297.098 489.707 290.803 488.449L290.803 487.19C290.803 473.342 289.544 459.494 289.544 459.494 289.544 459.494 288.285 473.342 288.285 487.19 288.285 487.19 288.285 488.449 288.285 488.449 285.768 488.449 281.991 488.449 279.473 489.707 270.661 492.225 274.438 496.002 275.696 496.002 276.955 496.002 278.214 494.743 279.473 494.743 281.991 494.743 285.768 493.484 285.768 493.484L278.214 503.555C278.214 503.555 276.955 504.814 278.214 506.073 280.732 513.626 288.285 538.804 290.803 548.875 293.321 557.687 283.25 562.723 283.25 562.723 283.25 562.723 275.696 566.5 270.661 569.017 270.661 569.017 269.402 570.276 269.402 570.276 269.402 570.276 268.143 570.276 268.143 570.276 265.625 570.276 253.036 566.5 248.001 566.5 240.448 566.5 227.859 565.241 221.564 563.982 217.788 566.5 207.717 566.5 201.422 565.241 196.387 565.241 186.315 566.5 181.28 566.5 176.244 566.5 166.173 571.535 161.138 572.794 151.067 575.312 130.924 576.571 120.853 579.088 117.077 580.347 109.523 584.124 107.005 585.383 99.4521 587.901 84.3455 592.936 76.7922 592.936 71.7566 594.195 59.1677 592.936 54.1322 594.195 49.0966 595.454 40.2844 600.49 35.2489 601.748 33.99 604.266 25.1778 605.525 25.1778 605.525L25.1778 701.201 264.366 698.683 1233.71 701.201 1233.71 659.657 1228.67 659.657ZM294.58 498.52C295.839 498.52 295.839 498.52 297.098 498.52 299.615 499.779 300.874 499.779 300.874 499.779 300.874 499.779 300.874 499.779 299.615 501.037 299.615 501.037 297.098 502.296 294.58 502.296 294.58 502.296 294.58 501.037 294.58 498.52ZM288.285 506.073C289.544 503.555 293.321 499.779 293.321 499.779 293.321 499.779 293.321 499.779 293.321 499.779 293.321 502.296 293.321 503.555 293.321 506.073 290.803 506.073 288.285 506.073 288.285 506.073 288.285 506.073 287.026 507.332 288.285 506.073ZM584.124 565.241C584.124 565.241 584.124 565.241 584.124 565.241L584.124 565.241C584.124 566.5 584.124 566.5 584.124 565.241 582.865 565.241 582.865 563.982 582.865 563.982L584.124 563.982 584.124 565.241Z" transform="matrix(1.00009 0 0 1 11 -236.625)"/><text font-family="Arial,Arial_MSFontService,sans-serif" font-weight="700" font-size="5" transform="matrix(12.59 0 0 12.5889 11 1211)">Created by Alvaro Molero</text><text font-family="Arial,Arial_MSFontService,sans-serif" font-weight="700" font-size="5" transform="matrix(12.59 0 0 12.5889 11 1274)">from the Noun Project</text><text fill="#FFFFFF" font-family="Arial,Arial_MSFontService,sans-serif" font-weight="400" font-size="5" transform="matrix(12.59 0 0 12.5889 36.18 1274)">Barcelona Skyline by Alvaro Molero from Noun Project</text><text fill="#FFFFFF" font-family="Arial,Arial_MSFontService,sans-serif" font-weight="400" font-size="5" transform="matrix(12.59 0 0 12.5889 1568.65 1274)">(</text><text fill="#FFFFFF" font-family="Arial,Arial_MSFontService,sans-serif" font-weight="400" font-size="5" transform="matrix(12.59 0 0 12.5889 1589.61 1274)">CC BY</text><text fill="#FFFFFF" font-family="Arial,Arial_MSFontService,sans-serif" font-weight="400" font-size="5" transform="matrix(12.59 0 0 12.5889 1798.35 1274)">3</text><text fill="#FFFFFF" font-family="Arial,Arial_MSFontService,sans-serif" font-weight="400" font-size="5" transform="matrix(12.59 0 0 12.5889 1833.36 1274)">.</text><text fill="#FFFFFF" font-family="Arial,Arial_MSFontService,sans-serif" font-weight="400" font-size="5" transform="matrix(12.59 0 0 12.5889 1850.85 1274)">0</text><text fill="#FFFFFF" font-family="Arial,Arial_MSFontService,sans-serif" font-weight="400" font-size="5" transform="matrix(12.59 0 0 12.5889 1885.86 1274)">)</text></g></g></g><text fill="#FFFFFF" font-family="Calibri Light,Calibri Light_MSFontService,sans-serif" font-weight="300" font-size="12" transform="translate(41.891 455)">Barcelona Skyline</text><text fill="#FFFFFF" font-family="Calibri Light,Calibri Light_MSFontService,sans-serif" font-weight="300" font-size="12" transform="translate(129.224 455)">by</text><text fill="#FFFFFF" font-family="Calibri Light,Calibri Light_MSFontService,sans-serif" font-weight="300" font-size="12" transform="translate(143.391 455)">Alvaro Molero</text><text fill="#FFFFFF" font-family="Calibri Light,Calibri Light_MSFontService,sans-serif" font-weight="300" font-size="12" transform="translate(215.391 455)">from</text><text fill="#FFFFFF" font-family="Calibri Light,Calibri Light_MSFontService,sans-serif" font-weight="300" font-size="12" transform="translate(241.724 455)">Noun Project</text><text fill="#FFFFFF" font-family="Calibri Light,Calibri Light_MSFontService,sans-serif" font-weight="300" font-size="12" transform="translate(308.058 455)">(CC BY 3.0)</text></g></svg>